<?xml version="1.0" standalone="no"?>
<!DOCTYPE svg PUBLIC "-//W3C//DTD SVG 20010904//EN"
 "http://www.w3.org/TR/2001/REC-SVG-20010904/DTD/svg10.dtd">
<svg version="1.0" xmlns="http://www.w3.org/2000/svg"
 width="1156.000000pt" height="1156.000000pt" viewBox="0 0 1156.000000 1156.000000"
 preserveAspectRatio="xMidYMid meet">
<metadata>
Created by potrace 1.14, written by Peter Selinger 2001-2017
</metadata>
<g transform="translate(0.000000,1156.000000) scale(0.100000,-0.100000)"
fill="#000000" stroke="none">
<path d="M5697 10486 c-2 -6 -3 -58 0 -116 3 -90 8 -251 12 -382 l1 -37 58 3
c31 2 60 5 63 5 6 1 3 273 -5 456 l-3 80 -61 1 c-38 1 -62 -2 -65 -10z"/>
<path d="M5976 10492 c-5 -9 -17 -276 -20 -431 l-1 -105 58 -1 c35 -1 61 3 63
9 4 10 10 104 13 189 1 16 5 26 9 23 5 -3 38 -6 75 -7 40 -1 67 -7 68 -13 0
-6 0 -31 -1 -56 -6 -123 -5 -142 4 -148 6 -4 34 -8 63 -10 l52 -3 5 43 c6 46
17 280 19 417 l2 85 -62 3 c-45 2 -63 -1 -63 -10 -2 -54 -13 -193 -16 -196 -4
-4 -96 -2 -129 3 -19 3 -20 9 -17 109 l4 107 -61 0 c-33 0 -62 -3 -65 -8z"/>
<path d="M5223 10452 c-39 -4 -39 -2 -29 -102 4 -36 9 -90 12 -120 2 -30 7
-68 9 -85 2 -16 7 -64 10 -105 3 -41 8 -84 10 -95 2 -11 4 -25 4 -32 1 -7 7
-11 14 -8 6 2 44 6 82 10 224 21 279 27 288 32 7 4 5 61 -2 101 -1 2 -36 1
-78 -3 -123 -11 -188 -11 -188 0 -3 33 -18 193 -20 210 -2 11 -6 52 -10 90
-10 108 -13 116 -44 113 -14 -2 -41 -4 -58 -6z"/>
<path d="M6661 10438 c-41 -7 -81 -27 -107 -53 -15 -15 -45 -72 -49 -95 -5
-26 -13 -78 -20 -130 -3 -25 -7 -54 -9 -65 -5 -32 13 -96 35 -126 11 -16 41
-41 65 -55 38 -22 58 -27 117 -27 76 -1 104 9 150 52 48 44 68 114 81 286 7
84 -21 139 -94 182 -29 18 -55 31 -57 29 -2 -2 -18 -1 -36 3 -18 4 -52 4 -76
-1z m109 -128 c26 -22 29 -54 17 -145 -17 -130 -24 -147 -67 -165 -55 -23
-123 27 -114 85 1 11 8 56 15 100 12 83 30 130 51 138 30 12 76 6 98 -13z"/>
<path d="M4980 10419 c-19 -4 -48 -10 -65 -13 -16 -3 -59 -12 -95 -20 -36 -8
-81 -17 -101 -20 -54 -8 -70 -17 -65 -35 5 -16 19 -83 52 -251 9 -47 20 -103
25 -125 5 -22 12 -58 15 -80 3 -22 9 -44 13 -48 4 -4 41 -1 82 7 41 8 85 17
99 20 14 2 48 9 75 15 28 6 62 13 77 15 43 7 50 15 43 49 -15 74 -9 71 -105
52 -40 -8 -73 -15 -100 -20 -14 -3 -35 -7 -47 -9 -18 -4 -23 0 -23 15 0 25 0
24 -10 58 -9 32 -1 37 80 48 67 10 83 20 75 51 -4 15 -9 35 -11 46 -5 29 -8
29 -83 12 -91 -21 -88 -21 -96 17 -4 17 -9 39 -11 48 -5 17 27 28 121 44 134
22 128 19 120 73 -4 26 -9 50 -12 55 -5 8 -5 8 -53 -4z"/>
<path d="M7152 10324 c-48 -25 -88 -76 -106 -136 -61 -211 -59 -265 9 -333 72
-72 202 -93 279 -46 30 19 95 101 80 101 -4 0 -1 7 6 15 7 8 10 15 7 15 -4 0
0 18 8 40 8 22 14 43 14 45 0 3 5 31 12 63 21 102 -15 177 -106 224 -55 29
-159 35 -203 12z m148 -109 c38 -20 48 -68 27 -133 -8 -26 -20 -71 -27 -100
-10 -42 -19 -58 -42 -72 -36 -22 -74 -17 -106 13 -20 19 -23 29 -18 67 3 25
10 61 16 80 6 19 13 48 16 64 7 43 35 85 58 89 39 8 47 7 76 -8z"/>
<path d="M4445 10301 l-50 -18 1 -79 c1 -43 4 -128 8 -189 l6 -110 -20 30
c-12 17 -55 86 -97 155 -42 69 -78 127 -80 129 -5 7 -106 -20 -120 -31 -9 -7
1 -28 34 -81 26 -40 49 -74 52 -77 5 -4 47 -65 76 -111 13 -20 137 -204 139
-205 4 -4 122 39 126 46 4 6 5 468 1 543 -1 21 -12 21 -76 -2z"/>
<path d="M7632 10158 c-13 -35 -28 -72 -32 -83 -16 -35 -130 -349 -130 -356 0
-4 8 -9 18 -12 9 -3 67 -23 127 -44 147 -53 211 -48 271 19 16 17 71 140 80
178 0 3 6 17 12 31 22 55 25 99 7 144 -21 56 -68 94 -165 130 -41 16 -79 32
-85 36 -5 4 -26 10 -45 14 l-35 6 -23 -63z m215 -134 c26 -28 24 -43 -20 -161
-22 -59 -41 -92 -59 -106 -27 -20 -29 -20 -84 -3 -43 14 -55 21 -51 34 13 42
68 189 77 204 5 10 10 22 10 27 0 5 4 21 10 35 l10 26 42 -16 c24 -9 53 -27
65 -40z"/>
<path d="M3915 10118 c-27 -11 -54 -23 -58 -27 -7 -7 174 -485 189 -500 4 -5
96 29 108 40 8 7 -8 66 -35 124 -5 11 -41 101 -80 200 -39 99 -71 181 -72 181
-1 1 -24 -7 -52 -18z"/>
<path d="M8170 9952 c-47 -25 -83 -94 -75 -142 10 -52 28 -81 100 -156 67 -70
81 -105 48 -120 -27 -11 -36 -11 -63 0 -40 17 -54 36 -56 79 -2 37 -6 42 -45
63 -59 31 -64 30 -81 -13 -31 -75 13 -161 110 -216 103 -58 208 -44 258 34 48
77 28 134 -88 252 -57 59 -66 78 -49 106 35 54 143 -19 127 -85 -6 -22 -1 -27
46 -49 62 -29 73 -23 83 43 20 140 -185 272 -315 204z"/>
<path d="M3423 9905 c-57 -26 -58 -27 -43 -53 5 -9 57 -116 115 -236 58 -121
107 -222 109 -224 8 -8 346 162 346 174 0 21 -33 84 -43 84 -5 0 -56 -22 -114
-50 -57 -27 -108 -50 -114 -50 -5 0 -34 53 -64 118 -78 163 -129 262 -135 262
-3 0 -29 -11 -57 -25z"/>
<path d="M2898 9597 c-87 -56 -158 -107 -158 -112 0 -6 33 -60 72 -120 40 -61
77 -117 83 -126 84 -134 132 -199 146 -196 25 6 309 197 309 208 0 16 -45 79
-57 79 -6 0 -54 -29 -107 -65 -94 -64 -118 -71 -130 -37 -3 9 -13 27 -21 39
-16 21 -15 23 54 68 l71 47 -16 26 c-42 71 -36 70 -116 17 -40 -26 -74 -43
-75 -38 -2 6 -15 25 -28 43 l-24 33 22 16 c12 10 59 41 105 71 45 29 82 57 82
62 0 7 -50 88 -54 88 0 0 -72 -46 -158 -103z"/>
<path d="M5868 9675 c-2 -1 -82 -5 -178 -9 -96 -3 -191 -8 -210 -10 -19 -2
-60 -7 -90 -10 -107 -12 -146 -17 -225 -32 -44 -7 -98 -17 -120 -20 -67 -10
-391 -93 -488 -125 -51 -17 -96 -32 -102 -33 -12 -2 -150 -53 -180 -66 -11 -5
-74 -32 -140 -60 -218 -93 -493 -244 -713 -392 -76 -50 -300 -219 -351 -263
-14 -13 -62 -54 -106 -91 -199 -172 -445 -436 -627 -674 -93 -121 -263 -374
-308 -455 -11 -22 -32 -58 -45 -80 -51 -85 -185 -356 -240 -485 -128 -300
-251 -704 -300 -980 -43 -242 -47 -270 -65 -455 -18 -178 -22 -279 -24 -670
l-2 -370 -37 -96 c-127 -337 -152 -718 -71 -1074 36 -159 106 -346 181 -485
53 -99 174 -277 239 -352 l58 -67 45 32 c25 18 51 37 57 42 6 6 57 42 112 80
56 39 101 72 101 75 0 3 -16 24 -37 46 -69 77 -127 159 -178 250 -15 27 -35
63 -44 79 -48 86 -129 321 -145 423 -18 112 -25 172 -24 212 0 41 4 35 43 -80
152 -440 360 -817 659 -1193 44 -56 91 -113 103 -127 70 -76 103 -112 164
-175 370 -383 833 -706 1355 -945 227 -104 591 -230 795 -275 8 -2 62 -15 120
-29 125 -29 375 -72 480 -82 41 -3 77 -8 80 -9 31 -18 641 -27 840 -12 529 38
1055 160 1500 350 14 6 27 11 30 12 62 17 448 215 605 311 545 333 1012 782
1348 1295 128 195 212 351 322 594 23 51 82 205 120 310 l35 100 -5 -85 c-20
-312 -147 -627 -360 -889 -33 -42 -76 -91 -94 -109 -20 -19 -30 -37 -25 -42
22 -21 289 -230 294 -230 11 0 102 100 170 185 189 238 320 509 385 799 32
146 40 226 40 416 -1 180 -10 274 -44 421 -28 123 -111 348 -167 449 l-24 45
39 -44 38 -45 -8 60 c-5 32 -11 79 -14 104 -3 25 -8 54 -10 66 -2 11 -7 45
-11 75 -4 30 -8 61 -9 69 -9 49 -15 134 -20 280 -3 91 -7 181 -9 200 -2 19 -7
71 -11 115 -4 44 -9 90 -11 102 -3 13 6 41 18 63 l23 39 -31 28 c-27 24 -34
40 -44 103 -7 41 -14 86 -17 100 -2 14 -7 34 -10 45 -3 11 -7 29 -8 40 -4 35
-54 236 -91 363 l-35 122 28 24 27 23 -39 34 c-21 19 -43 39 -50 44 -6 6 -42
89 -80 185 -58 146 -220 489 -282 595 -244 416 -487 732 -805 1042 -68 67
-141 136 -163 154 -22 19 -47 41 -55 49 -8 8 -37 33 -65 54 -27 22 -57 46 -65
53 -8 7 -33 27 -55 44 -22 16 -47 36 -56 43 -83 69 -349 240 -524 337 -338
187 -819 371 -1140 434 -22 5 -44 9 -50 11 -36 10 -214 42 -280 50 -22 3 -49
7 -61 9 -11 3 -52 7 -90 11 -38 3 -80 8 -94 10 -14 2 -92 7 -175 10 -82 3
-165 7 -182 8 -18 2 -34 2 -35 1z m1642 -4070 c13 -14 21 -25 18 -25 -2 0 -15
11 -28 25 -13 14 -21 25 -18 25 2 0 15 -11 28 -25z m2414 -1055 c75 -113 180
-310 158 -296 -4 2 -18 27 -32 55 -14 28 -28 51 -32 51 -5 0 -8 4 -8 10 0 5
-17 38 -38 72 -58 96 -104 178 -99 178 2 0 25 -31 51 -70z"/>
<path d="M8807 9583 c-25 -38 -90 -134 -146 -215 -56 -82 -101 -152 -101 -157
0 -15 101 -75 108 -64 61 95 109 162 116 163 10 0 113 -66 120 -78 2 -4 -22
-46 -54 -93 -32 -47 -56 -89 -52 -95 14 -18 91 -66 100 -60 4 3 49 65 98 138
49 73 91 135 94 138 3 3 29 40 58 83 43 63 51 81 41 93 -6 8 -16 14 -21 14 -5
0 -23 10 -39 23 l-31 22 -20 -25 c-11 -14 -39 -53 -62 -87 l-43 -63 -59 41
c-32 23 -61 43 -63 45 -2 2 22 42 54 88 31 47 54 90 50 96 -8 13 -81 60 -93
60 -5 0 -30 -30 -55 -67z"/>
<path d="M2527 9314 c-97 -34 -175 -141 -163 -224 6 -45 24 -84 56 -120 12
-14 43 -51 68 -83 61 -78 102 -102 172 -101 159 1 279 177 205 299 l-20 35
-50 -36 c-54 -38 -62 -48 -46 -59 6 -3 11 -21 11 -40 0 -44 -50 -90 -89 -80
-35 9 -44 17 -118 108 -71 89 -81 128 -40 164 33 30 61 33 98 11 l32 -20 46
47 46 46 -25 20 c-55 44 -118 55 -183 33z"/>
<path d="M9269 9272 c-26 -31 -103 -124 -173 -206 l-125 -149 22 -21 c51 -47
269 -226 275 -226 4 0 21 18 39 39 l32 39 -92 78 c-51 43 -96 80 -100 84 -4 4
9 25 29 48 l37 42 46 -37 c25 -21 55 -46 65 -55 19 -17 21 -16 52 20 38 44 35
52 -35 107 -27 22 -50 45 -50 50 0 6 13 26 28 45 l29 35 49 -41 c26 -22 71
-59 100 -83 l52 -43 30 34 c17 18 31 38 31 45 0 6 -28 35 -62 64 -35 30 -65
56 -68 59 -12 13 -157 130 -161 130 -2 0 -25 -26 -50 -58z"/>
<path d="M2140 8985 l-44 -45 35 -37 c88 -93 210 -222 272 -286 l68 -71 44 44
c24 24 41 48 38 54 -4 6 -41 47 -83 90 -41 44 -95 100 -120 126 -25 26 -71 75
-103 109 -31 33 -58 61 -60 61 -2 0 -23 -20 -47 -45z"/>
<path d="M9586 8750 c-132 -66 -244 -124 -249 -129 -6 -6 8 -27 36 -56 l44
-47 31 16 c17 9 35 16 41 16 14 0 126 -121 124 -134 -1 -6 -7 -25 -14 -43 -12
-30 -11 -33 27 -72 21 -23 44 -41 50 -41 6 0 27 33 47 73 20 39 79 150 132
246 l94 173 -56 59 c-31 33 -59 59 -62 58 -3 0 -114 -54 -245 -119z m172 -92
c-17 -29 -40 -69 -50 -88 -32 -57 -35 -58 -79 -11 -22 23 -38 46 -34 49 8 8
178 100 187 101 4 1 -7 -23 -24 -51z"/>
<path d="M1904 8754 c-49 -53 -112 -122 -141 -153 l-52 -56 40 -40 40 -40 49
55 48 55 23 -20 c12 -11 34 -31 49 -45 15 -14 69 -63 120 -110 52 -47 101 -92
111 -101 16 -16 20 -14 58 25 23 23 41 46 41 52 0 6 -39 46 -87 90 -152 137
-208 189 -215 198 -3 6 13 32 38 59 24 27 44 54 44 61 0 10 -62 66 -73 66 -2
0 -44 -43 -93 -96z"/>
<path d="M10010 8414 c-74 -58 -148 -116 -163 -127 -15 -12 -38 -30 -50 -41
-12 -10 -32 -25 -44 -33 -13 -9 -23 -19 -23 -23 0 -5 28 -44 63 -88 34 -44 86
-112 116 -150 59 -76 58 -76 115 -29 l29 24 -29 39 c-16 21 -39 51 -52 65 -13
15 -36 44 -52 66 l-29 39 87 66 c48 36 97 74 108 85 12 10 49 38 83 63 33 25
60 48 61 51 0 9 -72 99 -79 99 -3 -1 -67 -48 -141 -106z"/>
<path d="M1601 8369 c-74 -29 -152 -135 -156 -213 -3 -54 25 -108 71 -137 63
-39 122 -25 245 57 62 42 72 46 94 36 34 -16 32 -53 -3 -93 -27 -31 -55 -38
-101 -27 -13 3 -81 -74 -81 -92 0 -16 75 -43 117 -42 54 0 103 30 152 91 47
60 66 116 57 173 -11 73 -79 129 -149 123 -31 -3 -122 -46 -137 -65 -3 -4 -27
-19 -53 -35 -42 -24 -52 -26 -74 -16 -22 10 -25 16 -19 44 11 58 89 100 123
66 7 -7 21 5 48 41 l38 52 -21 20 c-23 23 -110 33 -151 17z"/>
<path d="M10395 8133 c-22 -14 -42 -28 -44 -29 -2 -2 13 -31 34 -64 20 -34 35
-63 34 -64 -16 -13 -336 -219 -346 -223 -15 -6 33 -99 55 -108 7 -3 67 30 133
73 65 42 145 93 177 113 l58 36 38 -58 c21 -33 42 -59 47 -59 20 0 88 53 82
64 -4 6 -14 22 -24 36 -9 14 -58 89 -109 168 -51 78 -93 142 -94 142 -1 0 -19
-12 -41 -27z"/>
<path d="M1273 7944 l-32 -54 27 -18 c15 -10 65 -41 110 -68 46 -27 96 -57
110 -66 15 -10 36 -22 47 -27 29 -13 44 -33 51 -69 5 -26 1 -36 -24 -62 -23
-23 -38 -29 -56 -26 -14 3 -98 48 -187 101 -88 53 -161 95 -163 94 -45 -72
-56 -91 -56 -102 0 -7 53 -44 117 -82 64 -39 126 -76 138 -82 91 -55 154 -67
215 -40 79 35 141 137 135 225 -3 49 -12 69 -47 113 -7 8 -44 34 -83 58 -38
23 -79 47 -89 54 -94 58 -125 76 -151 90 l-30 15 -32 -54z"/>
<path d="M10620 7626 c-194 -99 -365 -187 -368 -191 -4 -4 35 -84 50 -102 8
-9 33 0 105 38 52 28 96 49 98 47 16 -18 65 -132 58 -138 -4 -4 -42 -25 -83
-45 -108 -55 -103 -49 -73 -108 14 -29 27 -53 28 -55 4 -5 469 229 483 243 9
8 -50 105 -63 105 -9 0 -53 -20 -98 -44 l-83 -45 -32 62 c-18 34 -32 67 -32
72 0 6 33 27 73 47 116 59 112 54 80 116 -14 28 -29 52 -33 52 -3 0 -53 -24
-110 -54z"/>
<path d="M992 7445 c-29 -60 -28 -68 11 -84 17 -7 68 -30 112 -51 44 -21 106
-50 137 -64 68 -31 93 -62 83 -105 -12 -54 -46 -71 -111 -56 -30 7 -32 5 -56
-43 -14 -28 -22 -54 -19 -59 9 -14 62 -33 96 -35 132 -8 248 172 194 304 -17
43 -51 73 -119 105 -220 104 -284 133 -294 133 -7 0 -22 -20 -34 -45z"/>
</g>
</svg>
